<?xml version="1.0" encoding="UTF-8"?>
<svg version="1.1" viewBox="0 0 1600 888" width="1280" height="1280" xmlns="http://www.w3.org/2000/svg">
<path transform="translate(322 263)" d="m0 0c1.08-0.01 2.16-0.01 3.27-0.02 1.2 0.01 2.39 0.01 3.62 0.02 1.26-0.01 2.53-0.01 3.83-0.01 3.51-0.01 7.03-0.01 10.5 0 3.79 0 7.57 0 11.4-0.01 7.42-0.01 14.8 0 22.3 0 6.03 0.01 12.1 0.01 18.1 0h2.6 5.22c16.3 0 32.7 0 49 0.01 14 0.01 28.1 0.01 42.1 0 16.3-0.01 32.6-0.01 48.8-0.01h5.2 2.58c6.03 0.01 12 0 18.1 0 7.34-0.01 14.7-0.01 22 0.01h11.2c4.06-0.01 8.11 0 12.2 0.01 1.19-0.01 2.39-0.01 3.62-0.02 1.08 0.01 2.16 0.01 3.27 0.02h2.84c2.22 0.25 2.22 0.25 4.22 2.25 0.25 2.24 0.25 2.24 0.25 5.1 0 1.09 0.01 2.18 0.01 3.3 0 1.2-0.01 2.41-0.02 3.65 0.01 1.91 0.01 1.91 0.01 3.85 0 3.54 0 7.09-0.01 10.6-0.01 3.81-0.01 7.63-0.01 11.4 0 6.61 0 13.2-0.01 19.8-0.02 9.56-0.03 19.1-0.03 28.7 0 15.5-0.02 31-0.04 46.5-0.01 15.1-0.03 30.1-0.04 45.2v2.81c0 4.66 0 9.32-0.01 14-0.02 38.7-0.05 77.3-0.1 116-3.17 0.67-6.06 1.12-9.31 1.06-1.22-0.02-2.43-0.04-3.69-0.06-1.54 3.09-1.01 6.19-0.93 9.59-0.07 2.41-0.07 2.41-1.07 5.41-39.7 0.07-79.4 0.12-119 0.15-4.68 0.01-9.36 0.01-14 0.02h-2.82c-15.1 0.01-30.2 0.04-45.4 0.06-15.5 0.03-31 0.05-46.5 0.05-9.57 0.01-19.1 0.02-28.7 0.05-6.55 0.01-13.1 0.02-19.7 0.01-3.79 0-7.58 0-11.4 0.02-4.09 0.02-8.19 0.01-12.3 0-1.81 0.02-1.81 0.02-3.66 0.03-1.09-0.01-2.18-0.01-3.31-0.02h-2.87c-0.74-0.12-1.48-0.24-2.25-0.37-2.59-3.9-2.35-7.24-2.41-11.8-0.01-0.9-0.03-1.8-0.05-2.72-0.06-3-0.11-5.99-0.15-8.99-0.04-2.13-0.08-4.25-0.12-6.38-0.38-22.7-0.41-45.4-0.4-68.2v-17.8-29.8c0.01-11.4 0.01-22.7 0-34.1v-29.7-17.6c-0.02-28.7 0.29-57.3 1.13-85.9 3.01-1.5 5.79-1.09 9.13-1.06 1.28 0.01 2.56 0.02 3.88 0.03 0.99 0.01 1.98 0.02 2.99 0.03-0.02-0.91-0.04-1.83-0.07-2.77-0.01-1.19-0.03-2.38-0.05-3.6-0.02-1.19-0.05-2.37-0.07-3.59 0.33-5.24 2.62-5.29 7.26-5.29z" fill="#FCFCFC"/>
<path transform="translate(322 263)" d="m0 0c1.08-0.01 2.16-0.01 3.27-0.02 1.2 0.01 2.39 0.01 3.62 0.02 1.26-0.01 2.53-0.01 3.83-0.01 3.51-0.01 7.03-0.01 10.5 0 3.79 0 7.57 0 11.4-0.01 7.42-0.01 14.8 0 22.3 0 6.03 0.01 12.1 0.01 18.1 0h2.6 5.22c16.3 0 32.7 0 49 0.01 14 0.01 28.1 0.01 42.1 0 16.3-0.01 32.6-0.01 48.8-0.01h5.2 2.58c6.03 0.01 12 0 18.1 0 7.34-0.01 14.7-0.01 22 0.01h11.2c4.06-0.01 8.11 0 12.2 0.01 1.19-0.01 2.39-0.01 3.62-0.02 1.08 0.01 2.16 0.01 3.27 0.02h2.84c2.22 0.25 2.22 0.25 4.22 2.25 0.25 2.24 0.25 2.24 0.25 5.1 0 1.09 0.01 2.18 0.01 3.3 0 1.2-0.01 2.41-0.02 3.65 0.01 1.91 0.01 1.91 0.01 3.85 0 3.54 0 7.09-0.01 10.6-0.01 3.81-0.01 7.63-0.01 11.4 0 6.61 0 13.2-0.01 19.8-0.02 9.56-0.03 19.1-0.03 28.7 0 15.5-0.02 31-0.04 46.5-0.01 15.1-0.03 30.1-0.04 45.2v2.81c0 4.66 0 9.32-0.01 14-0.02 38.7-0.05 77.3-0.1 116-3.17 0.67-6.06 1.12-9.31 1.06-1.22-0.02-2.43-0.04-3.69-0.06-1.54 3.09-1.01 6.19-0.93 9.59-0.07 2.41-0.07 2.41-1.07 5.41-39.7 0.07-79.4 0.12-119 0.15-4.68 0.01-9.36 0.01-14 0.02h-2.82c-15.1 0.01-30.2 0.04-45.4 0.06-15.5 0.03-31 0.05-46.5 0.05-9.57 0.01-19.1 0.02-28.7 0.05-6.55 0.01-13.1 0.02-19.7 0.01-3.79 0-7.58 0-11.4 0.02-4.09 0.02-8.19 0.01-12.3 0-1.81 0.02-1.81 0.02-3.66 0.03-1.09-0.01-2.18-0.01-3.31-0.02h-2.87c-0.74-0.12-1.48-0.24-2.25-0.37-2.59-3.9-2.35-7.24-2.41-11.8-0.01-0.9-0.03-1.8-0.05-2.72-0.06-3-0.11-5.99-0.15-8.99-0.04-2.13-0.08-4.25-0.12-6.38-0.38-22.7-0.41-45.4-0.4-68.2v-17.8-29.8c0.01-11.4 0.01-22.7 0-34.1v-29.7-17.6c-0.02-28.7 0.29-57.3 1.13-85.9 3.01-1.5 5.79-1.09 9.13-1.06 1.28 0.01 2.56 0.02 3.88 0.03 0.99 0.01 1.98 0.02 2.99 0.03-0.02-0.91-0.04-1.83-0.07-2.77-0.01-1.19-0.03-2.38-0.05-3.6-0.02-1.19-0.05-2.37-0.07-3.59 0.33-5.24 2.62-5.29 7.26-5.29zm7.93 45.2c-1.84 2.81-2.25 5.04-2.24 8.37-0.01 0.87-0.01 1.74-0.01 2.64 0 0.95 0.01 1.91 0.01 2.89v3.08c-0.01 3.41 0.01 6.83 0.02 10.2v7.33c0 5.27 0 10.5 0.01 15.8 0.02 7.62 0.02 15.2 0.03 22.8 0 12.4 0.01 24.7 0.03 37.1 0.02 12 0.04 24 0.04 36 0 0.74 0 1.48 0.01 2.25v11.1c0.02 30.8 0.06 61.6 0.1 92.4 1.1 0.65 2.2 1.3 3.34 1.97 0.62 0.37 1.23 0.73 1.87 1.11 2.41 1.24 4.35 1.41 7.04 1.39 0.98 0 1.97 0.01 2.99 0.01 1.05-0.02 2.11-0.03 3.2-0.05 1.13-0.01 2.26-0.01 3.42-0.01 3.72-0.02 7.43-0.06 11.1-0.11 2.59-0.01 5.18-0.03 7.78-0.04 13.2-0.08 26.4-0.29 39.6-0.54 1.23-0.03 2.46-0.05 3.73-0.07 5.86-0.12 11.7-0.24 17.6-0.39 9.89-0.24 19.7-0.3 29.5 0.34 12.8 0.77 25.6 0.54 38.4 0.52 2.29 0 4.57-0.01 6.86-0.01 18.4-0.02 36.8-0.07 55.3-0.38 1.92-0.03 3.83-0.06 5.75-0.08 2.6-0.04 5.2-0.09 7.8-0.15 0.75 0 1.5-0.01 2.27-0.02 3.82-0.06 3.82-0.06 7.13-1.75 1.63-2.16 1.69-3.28 1.69-5.97 0.02-1.3 0.02-1.3 0.03-2.62-0.01-1.43-0.01-1.43-0.02-2.89 0.01-1.01 0.01-2.02 0.02-3.07 0.01-3.4 0-6.81 0-10.2 0-2.43 0.01-4.87 0.02-7.3 0.01-5.94 0.02-11.9 0.01-17.8v-14.5c0-0.69 0.01-1.37 0.01-2.08v-4.18c0.01-13.1 0.01-26.2 0-39.3-0.01-12 0-23.9 0.02-35.9 0.03-12.3 0.04-24.6 0.03-36.9 0-6.9 0-13.8 0.02-20.7 0.01-6.49 0.01-13-0.01-19.5 0-2.38 0-4.77 0.01-7.15 0.01-3.25 0-6.5-0.02-9.75 0.01-0.95 0.02-1.9 0.03-2.88-0.04-3.92-0.29-6.61-1.94-10.2-3.97-2.94-7.6-2.59-12.4-2.52-1.01 0-2.02-0.01-3.06-0.01-3.4-0.01-6.79 0.01-10.2 0.04-2.43 0-4.85 0-7.28-0.01-5.92 0-11.8 0.01-17.8 0.04-6.89 0.03-13.8 0.04-20.7 0.04-12.3 0.01-24.6 0.04-36.9 0.08-11.9 0.04-23.9 0.07-35.8 0.08h-2.23c-2.95 0.01-5.91 0.01-8.86 0.01-12.7 0.02-25.5 0.04-38.2 0.06-2.06 0.01-4.12 0.01-6.19 0.02-7.83 0.01-15.7 0.03-23.5 0.06-2.38 0-4.75 0.01-7.13 0.02-3.24 0-6.47 0.01-9.71 0.03h-2.87c-1.3 0.01-1.3 0.01-2.62 0.01-1.12 0.01-1.12 0.01-2.26 0.01-2.17 0.06-2.17 0.06-4.96 1.13z" fill="#F9652D"/>
<path transform="translate(1236 381)" d="m0 0c0.72 0.01 1.45 0.02 2.19 0.02 15.9 0.33 30.1 5.87 42.6 15.5 2.69 2.13 2.69 2.13 6.67 1.76 0.16-0.59 0.31-1.18 0.48-1.79 1.55-5.27 3.02-8.76 7.52-12.2 5.43-2.53 10.7-2.64 16.6-1.5 4.32 2.66 8.75 6.78 10 11.8 0.42 2.72 0.54 5.26 0.54 8.01 0.01 1.05 0.01 2.1 0.01 3.19v3.46 3.67c0.01 3.32 0 6.64 0 9.96v10.4c0.01 5.85 0 11.7 0 17.6-0.01 6.74-0.01 13.5 0 20.2v17.4 10.4c0.01 3.86 0 7.73 0 11.6v3.43c-0.05 21.9-0.05 21.9-6.13 28.3-4.72 2.85-9.54 4.11-15 3-6.44-2.85-11.4-7.38-14-14v-3h-3l-1 3c-1.34 0.33-2.67 0.67-4 1l-1 3c-2.32 1.03-4.66 2.03-7 3-1.01 0.99-2.01 1.99-3 3-1.76 1.1-1.76 1.1-3.69 2.06-0.93 0.48-0.93 0.48-1.89 0.98-16.2 6.42-35.6 4.98-51.4-1.57-4.77-2.32-8.85-5.21-13-8.47-1.34-0.95-1.34-0.95-2.71-1.92-7.64-5.69-12.3-12.3-17.2-20.3-0.93-1.51-1.91-2.99-2.89-4.47-4.93-7.57-8.35-16.2-8.18-25.3l-1-1c-1.03-15.7-1.41-32.1 4-47 0.59-1.78 0.59-1.78 1.2-3.59 2.22-6.23 4.73-11.2 8.8-16.4l1-3 3-2c0.31-0.63 0.61-1.25 0.93-1.9 1.31-2.58 2.91-3.89 5.13-5.73 2.92-2.32 2.92-2.32 4.94-5.37 1.64-1.03 3.31-2.03 5-3 0.88-0.64 1.77-1.28 2.68-1.94 6.35-3.95 13.1-6.26 20.4-7.57 10.7-2.76 10.7-2.76 12.5-2.74zm-7.56 1.25 4 1zm-4 35v2c-0.77 0.12-1.53 0.25-2.32 0.37-2.89 0.51-2.89 0.51-5.68 2.63v2c-0.77 0.23-1.53 0.45-2.32 0.69-3.31 1.62-3.89 3.14-5.68 6.31-0.5 0.71-0.99 1.42-1.5 2.15-9.49 14.1-9.35 34.1-6.21 50.3 1.06 3.83 2.71 7.12 4.71 10.6 0.67 1.33 1.34 2.66 2 4h2c0.11 0.85 0.11 0.85 0.22 1.72 2.03 5.94 9.4 10.9 14.8 13.7 11.7 4.48 26.1 4.9 37.8 0.48 4.89-2.28 8.73-4.73 12.2-8.92 0.49-1.49 0.49-1.49 1-3 0.62-0.29 1.23-0.58 1.87-0.87 2.88-1.53 3.63-3.27 5.13-6.13 0.51-0.95 1.03-1.9 1.56-2.87 1.53-3.33 2.48-6.6 3.44-10.1 0.51-1.01 0.51-1.01 1.04-2.04 1.47-4.54 1.25-8.98 1.21-13.7 0.01-0.95 0.01-1.9 0.02-2.88-0.04-16.5-5.95-29.6-17.3-41.5-8.96-8.5-20.9-8.34-32.6-8.12-5.38 0.23-10.3 1.4-15.4 3.27zm62 67 1 2z" fill="#FCFCFC"/>
<path transform="translate(900,383)" d="m0 0c0.91 0.28 1.82 0.55 2.75 0.84 3.86 1.38 7.47 3.08 11.1 4.91 0.7 0.35 1.41 0.7 2.13 1.07 4.52 2.3 8.62 4.78 12.5 8.05 1.6 1.35 1.6 1.35 4.48 2.13 0.17-0.66 0.34-1.33 0.52-2.01 1.77-6.47 3.4-10.8 9.04-14.8 4.94-1.71 9.29-2.2 14.4-1.19 5.42 2.93 8.28 6.69 10.4 12.5 1.3 5.21 1.01 10.6 0.96 15.9 0 1.34-0.01 2.68-0.01 4.02 0 3.62-0.02 7.24-0.05 10.8-0.03 3.03-0.04 6.06-0.05 9.09-0.04 7.14-0.09 14.3-0.15 21.4-0.06 7.36-0.09 14.7-0.11 22.1-0.01 6.33-0.05 12.7-0.1 19-0.03 3.77-0.05 7.55-0.05 11.3-0.01 3.55-0.04 7.1-0.08 10.6-0.02 1.91-0.02 3.83-0.01 5.74-0.12 7.18-0.73 11.2-5.72 16.5-3.5 2.74-6.58 4.23-11.1 4.5-6.75-0.86-10.5-4.63-14.7-9.68-1.7-2.46-2.56-4.93-3.26-7.82h-3l-1 3c-1.32 0.7-2.65 1.37-4 2l-1 2c-1.78 1-1.78 1-3.94 2-2.55 1.18-4.05 1.99-6.06 4-1.93 0.76-3.86 1.52-5.81 2.21-2.15 0.75-2.15 0.75-4.04 1.61-12.2 5.32-29.9 4.41-42.3-0.23-11.4-4.84-26.8-13.6-32.1-25.4-0.24-0.74-0.49-1.47-0.75-2.23h-2c-4-5.29-4-5.29-4-9h-2c-0.95-2.08-1.88-4.16-2.81-6.25-0.52-1.16-1.05-2.32-1.58-3.52-4.29-10.8-5.07-20.9-4.95-32.4 0.03-2.47 0.02-4.94 0.02-7.41 0-1.57 0.01-3.15 0.02-4.72v-2.23c0.05-3.71 0.19-5.35 2.3-8.52 0.85-3.34 1.53-6.69 2.22-10.1 0.78-2.93 0.78-2.93 2.78-4.93 0.63-1.5 1.2-3.03 1.75-4.56 3.41-8.75 8.92-15.6 15.2-22.4 0.83-0.91 1.65-1.81 2.5-2.75 3.01-2.71 5.93-4.34 9.5-6.25 2.41-1.43 4.8-2.86 7.12-4.42 13.3-7.29 30.5-9.07 44.9-4.58zm-44.6 45.9c-1.71 2.08-1.71 2.08-1.43 5.09-0.99 0.33-1.98 0.66-3 1-1.45 2.8-1.45 2.8-2.62 6.19-0.43 1.13-0.86 2.25-1.29 3.42-2.22 6.91-2.27 13.5-2.28 20.7-0.02 1.49-0.02 1.49-0.03 3.02-0.03 13.4 3.76 24.2 12.2 34.7h2c0.26 0.61 0.52 1.22 0.79 1.84 3.26 5.81 11.3 8.34 17.3 10.4 11.8 3.2 23.9 2.1 34.6-3.78 3.37-2.12 6.62-4.43 9.27-7.43v-2c0.6-0.23 1.2-0.45 1.81-0.69 6.15-3.69 9.65-14.7 11.5-21.4 3.28-17.3 0.19-35.2-9.37-49.9-5.02-7.05-11.7-13.3-20.3-15.4-5.03-0.76-10.1-0.85-15.2-0.93-0.79-0.02-1.59-0.04-2.4-0.06-12.9 0.02-23.3 5.76-31.6 15.3zm-42.4 19.1 1 2zm0 32 1 2z" fill="#FCFCFC"/>
<path transform="translate(350 442)" d="m0 0c0.85-0 1.71-0.01 2.58-0.01 1.4 0.01 1.4 0.01 2.83 0.01h2.98c3.26-0.01 6.52 0.01 9.77 0.02h6.78c4.73 0 9.46 0.01 14.2 0.02 6.09 0.02 12.2 0.02 18.2 0.02 4.66 0 9.32 0.01 14 0.01 2.25 0.01 4.49 0.01 6.73 0.01 3.13 0 6.26 0.01 9.38 0.02h2.84c6.39 0.03 6.39 0.03 7.5 1.15 0.1 1.35 0.12 2.71 0.12 4.07 0 1.31 0 1.31 0.01 2.65-0.01 1.45-0.01 1.45-0.01 2.94v3.07c-0.01 3.37-0.01 6.74-0.02 10.1 0 2.34 0 4.67-0.01 7 0 6.14-0.01 12.3-0.02 18.4-0.01 6.26-0.01 12.5-0.02 18.8-0.01 12.3-0.03 24.6-0.05 36.9-9.09 0.13-18.2 0.26-27.3 0.39-4.23 0.06-8.45 0.12-12.7 0.18-4.1 0.06-8.19 0.12-12.3 0.18-1.54 0.02-3.09 0.04-4.64 0.06-8.07 0.12-16.2 0.21-24.2 0.22-1.02 0.01-1.02 0.01-2.05 0.01-6.59 0-13.3-0.03-19.9-1.04-2.37-2.38-2.25-2.84-2.26-6.06-0.01-0.85-0.01-1.7-0.02-2.58 0-0.93 0-1.87 0.01-2.83-0.01-0.98-0.01-1.96-0.02-2.98-0.01-3.25-0.01-6.51-0.01-9.77 0-2.26-0.01-4.52-0.01-6.77-0.01-4.74-0.01-9.47 0-14.2 0-6.08-0.02-12.2-0.04-18.2-0.01-4.66-0.01-9.32-0.01-14 0-2.24-0.01-4.49-0.02-6.73-0.01-3.13 0-6.26 0.01-9.39-0.01-0.93-0.02-1.86-0.02-2.83 0-0.85 0.01-1.7 0.02-2.57v-2.24c0.81-3.95 4.19-4.07 7.56-4.07z" fill="#F9662E"/>
<path transform="translate(355 322)" d="m0 0c0.78-0 1.57-0.01 2.38-0.01 1.24 0 1.24 0 2.51 0.01 1.35-0.01 1.35-0.01 2.73-0.01 2.96 0 5.92 0.01 8.87 0.01 1.02 0.01 2.03 0.01 3.08 0.01 16.8 0.02 33.6 0.23 50.4 0.56 1.63 0.03 1.63 0.03 3.29 0.06 3.06 0.05 6.11 0.12 9.17 0.18 0.92 0.02 1.84 0.04 2.78 0.05 6.27 0.15 6.27 0.15 7.38 1.27 0.1 1.34 0.13 2.69 0.13 4.03v2.63c-0.01 1.44-0.01 1.44-0.01 2.91v3.04c0 3.34-0.01 6.68-0.02 10v6.92c-0.01 6.09-0.02 12.2-0.03 18.3-0.01 6.21-0.01 12.4-0.02 18.6-0.01 12.2-0.02 24.4-0.05 36.6-3.33 0.17-6.67 0.33-10 0.49-0.94 0.05-1.88 0.09-2.84 0.14-7.47 0.36-14.9 0.52-22.4 0.49-1.13 0.01-2.27 0.01-3.44 0.02-1.08-0.01-2.15-0.01-3.26-0.01h-2.88c-2.17-0.13-2.17-0.13-3.17-1.13-3.5-0.17-3.5-0.17-7 0l-1 1c-1.42 0.11-2.85 0.15-4.28 0.16-0.91 0.01-1.83 0.02-2.76 0.03-1 0-1.99 0.01-3.01 0.01-1.52 0.01-1.52 0.01-3.07 0.02-2.14 0.01-4.29 0.02-6.44 0.02-3.29 0.01-6.58 0.04-9.87 0.07-2.08 0.01-4.16 0.01-6.24 0.02-0.99 0.01-1.98 0.02-3 0.03h-2.78c-0.81 0-1.61 0-2.44 0.01-2.68-0.47-3.42-1.27-5.11-3.37-0.36-1.96-0.36-1.96-0.36-4.23 0-0.87 0-1.73-0.01-2.62 0.01-0.94 0.02-1.88 0.03-2.85v-3.02c0.01-3.3 0.03-6.59 0.05-9.89 0.01-2.28 0.01-4.56 0.01-6.84 0.02-6.02 0.05-12 0.08-18 0.03-6.13 0.04-12.3 0.06-18.4 0.03-12 0.08-24.1 0.14-36.1 8.52-1.13 8.52-1.13 12.4-1.13z" fill="#F9672E"/>
<path transform="translate(569,445)" d="m0 0c0.37 1.86 0.37 1.86 0.36 4 0 0.81 0 1.62 0.01 2.46-0.02 0.89-0.03 1.77-0.04 2.69 0 0.94 0 1.88-0.01 2.85-0.01 3.12-0.04 6.25-0.07 9.38l-0.03 6.51c-0.15 24.7-0.67 49.4-1.22 74.1-12.1 0.15-24.2 0.3-36.3 0.44-5.62 0.07-11.2 0.14-16.9 0.21-5.43 0.07-10.8 0.13-16.3 0.19-2.07 0.03-4.13 0.05-6.2 0.08-2.9 0.04-5.81 0.07-8.71 0.1-1.27 0.02-1.27 0.02-2.56 0.04-5.45 0.05-10.7-0.3-16.1-1.06-1.96-1.96-1.13-4.97-1.14-7.59 0.01-0.94 0.01-1.89 0.01-2.87v-3.01c-0.01-3.3-0.01-6.6 0-9.91 0-2.28 0-4.56-0.01-6.84 0-4.8 0-9.59 0.01-14.4 0.01-6.16 0-12.3 0-18.5-0.01-4.72-0.01-9.44 0-14.2 0-2.27 0-4.54-0.01-6.81 0-3.17 0.01-6.34 0.01-9.51 0-0.95 0-1.9-0.01-2.87 0.03-6.48 0.03-6.48 1.14-7.59 3.12-0.14 6.22-0.22 9.34-0.25 0.98-0.02 1.96-0.03 2.97-0.05 3.26-0.04 6.52-0.08 9.78-0.12 2.25-0.03 4.51-0.06 6.76-0.09 4.74-0.05 9.48-0.11 14.2-0.16 6.08-0.06 12.2-0.15 18.2-0.24 4.66-0.06 9.32-0.11 14-0.16 2.25-0.03 4.49-0.06 6.73-0.09 3.13-0.05 6.26-0.08 9.39-0.1 1.4-0.03 1.4-0.03 2.83-0.06 0.85 0 1.7-0.01 2.58-0.01 0.74-0.01 1.48-0.02 2.25-0.03 2.5 0.46 3.38 1.39 4.94 3.36z" fill="#F9662E"/>
<path transform="translate(568,323)" d="m0 0v104c-21.7 0.28-21.7 0.28-43.9 0.56-4.57 0.06-9.15 0.13-13.9 0.19-5.58 0.07-5.58 0.07-8.19 0.1-1.82 0.02-3.65 0.04-5.48 0.07-2.76 0.04-5.52 0.07-8.28 0.1-1.23 0.02-1.23 0.02-2.48 0.04-5.6 0.05-5.6 0.05-7.83-1.06-4.44-0.21-8.62 0.3-13 1-1.15-2.29-1.13-3.56-1.13-6.11 0-0.86 0-1.72-0.01-2.6 0.01-0.95 0.01-1.89 0.01-2.86v-3.02c-0.01-3.29-0.01-6.59 0-9.88 0-2.28 0-4.57-0.01-6.85 0-4.78 0-9.57 0.01-14.4 0.01-6.14 0-12.3 0-18.4-0.01-4.72-0.01-9.43 0-14.1 0-2.27 0-4.54-0.01-6.81 0-3.16 0.01-6.32 0.01-9.48 0-0.95 0-1.9-0.01-2.87 0.03-6.47 0.03-6.47 1.14-7.58 3.12-0.13 6.23-0.2 9.35-0.22 0.99-0.01 1.97-0.02 2.98-0.04 3.26-0.03 6.53-0.06 9.79-0.09 2.26-0.02 4.52-0.05 6.78-0.07 4.74-0.05 9.48-0.1 14.2-0.14 6.09-0.05 12.2-0.12 18.3-0.18 4.67-0.05 9.33-0.1 14-0.14 2.24-0.02 4.49-0.05 6.73-0.07 3.14-0.03 6.27-0.06 9.41-0.09 0.93-0.01 1.87-0.02 2.83-0.03 0.85-0.01 1.7-0.01 2.58-0.02 1.11-0.01 1.11-0.01 2.25-0.02 1.82 0.11 1.82 0.11 3.82 1.11z" fill="#F9662D"/>
<path transform="translate(780,323)" d="m0 0c1.19 0.01 1.19 0.01 2.41 0.02 7.24 0.35 13.1 3.67 18.3 8.65 2.78 3.42 4.13 6.66 3.81 11.2-1.14 4.39-3.46 7.83-6.55 11.1-5.54 3.05-10.7 1.58-16.6 0.52-7.27-1.13-14.5-1.33-21.4 1.48-5.38 4.58-7.58 11-8.17 18-0.16 4.34-0.04 8.65 0.17 13 0.96-0.01 1.92-0.02 2.9-0.04 7.41-0.06 14.8 0 22.2 0.29 1.05 0.02 1.05 0.02 2.12 0.04 4.95 0.24 7.96 1.56 11.8 4.71v2c1.49 0.5 1.49 0.5 3 1 2.35 4.08 2.59 8.4 2 13-1.6 4.16-3.47 7.25-7 10-4.88 1.68-9.1 2.24-14.2 2.2-0.65-0.01-1.31-0.01-1.98-0.01-2.07-0.01-4.14-0.04-6.21-0.07-1.41-0.01-2.82-0.01-4.24-0.02-3.44-0.02-6.88-0.06-10.3-0.1v1.74c-0.04 14-0.1 28-0.18 42-0.04 6.77-0.08 13.6-0.09 20.3-0.02 6.54-0.05 13.1-0.1 19.6-0.01 2.5-0.02 4.99-0.02 7.49 0 3.49-0.03 6.99-0.06 10.5 0 1.54 0 1.54 0.01 3.11-0.09 6.09-0.79 11.2-4.56 16.2-4.45 3.4-9.17 4.78-14.8 4.52-6.03-1.4-10.9-6.49-14.2-11.5-0.92-2.91-1.13-5.57-1.16-8.62-0.01-0.92-0.02-1.84-0.03-2.79-0.01-1.51-0.01-1.51-0.02-3.05-0.01-1.06-0.02-2.13-0.03-3.22-0.03-3.52-0.05-7.04-0.08-10.6l-0.06-7.32c-0.05-6.42-0.1-12.8-0.15-19.2-0.05-6.55-0.11-13.1-0.16-19.6-0.11-12.8-0.21-25.7-0.31-38.6-1.1-0.06-2.19-0.12-3.32-0.18-1.45-0.08-2.91-0.17-4.36-0.25-0.72-0.04-1.44-0.08-2.18-0.12-7.28-0.42-13.4-1.21-18.6-6.64-2.84-3.78-3.87-7.1-3.5-11.8 0.85-4.45 2.11-7.92 5-11.4 8.3-4.32 17.9-3.82 27-3.56-0.05-0.97-0.09-1.94-0.14-2.94-0.61-18.6 4.35-33.9 16.8-48 12.9-11.6 30.8-13.5 47.3-13.1zm-63 48v16h1v-16h-1zm-16 47v1h9v-1h-9z" fill="#FCFCFC"/>
<path transform="translate(1019 386)" d="m0 0c9.68 6.24 12.7 16.3 16.6 26.7 1.43 3.63 3.13 7.04 4.93 10.5 2.14 4.32 3.96 8.76 5.84 13.2 1.3 3.05 2.65 6.07 4.04 9.08 2.62 5.73 5.03 11.6 7.43 17.4 2.18 5.17 4.48 10.3 6.82 15.4 1.71 3.83 3.27 7.55 4.18 11.6 1.95-0.21 1.95-0.21 4-1 1.19-1.66 1.19-1.66 1.94-3.81 0.33-0.82 0.67-1.64 1.01-2.48 0.35-0.89 0.69-1.79 1.05-2.71 0.77-1.87 1.54-3.75 2.31-5.62 0.43-1.02 0.85-2.04 1.28-3.08 1.53-3.58 3.18-7.1 4.85-10.6 2.98-6.28 5.62-12.6 8.16-19.1 3.53-8.98 7.36-17.8 11.4-26.6 0.9-1.96 1.8-3.91 2.69-5.87 0.4-0.87 0.79-1.73 1.2-2.62 0.74-1.67 1.44-3.35 2.11-5.04 2.31-5.68 5.15-11.6 10-15.5 4.45-1.48 8.38-1.94 13-1 4.6 2.93 9.18 6.72 11 12 0.51 5.47-0.68 9.66-2.81 14.6-0.26 0.64-0.52 1.28-0.79 1.94-1.53 3.69-3.31 7.04-5.4 10.4-2.71 5.53-5.24 11.1-7 17h-2c-0.1 0.56-0.19 1.12-0.29 1.69-1.11 5.67-2.94 10.3-5.71 15.3-2.34 4.59-4.49 9.24-6.61 13.9-6.65 14.7-6.65 14.7-9.51 20.3-1.45 2.84-2.66 5.72-3.81 8.69-1.71 4.36-3.71 8.5-5.84 12.7-3.58 7.13-6.82 14.6-9.54 22.1-2.09 4.17-3.88 5.73-7.69 8.37-4.95 1.57-10.1 1.94-15.1 0.31-14.4-7.57-20.5-32.9-26.4-47.2-0.83-2.02-1.67-4.03-2.5-6.05-0.73-1.77-0.73-1.77-1.48-3.57-1.64-3.65-3.54-6.98-5.55-10.4-1.02-2.32-2.02-4.65-3-7-1.12-2.47-2.28-4.92-3.43-7.37-3.72-7.89-7.24-15.8-10.7-23.9-0.85-1.98-1.7-3.96-2.54-5.93-0.58-1.36-1.16-2.71-1.73-4.06-0.84-1.99-1.69-3.97-2.54-5.95-0.5-1.16-1-2.33-1.51-3.54-1.61-3.33-3.5-6.24-5.59-9.29-1.85-5.31-1.72-11.1 0.25-16.3 5.38-8.26 13.7-11 22.9-7.5z" fill="#FCFCFC"/>
<path transform="translate(322 263)" d="m0 0c1.08-0.01 2.16-0.01 3.27-0.02 1.2 0.01 2.39 0.01 3.62 0.02 1.26-0.01 2.53-0.01 3.83-0.01 3.51-0.01 7.03-0.01 10.5 0 3.79 0 7.57 0 11.4-0.01 7.42-0.01 14.8 0 22.3 0 6.03 0.01 12.1 0.01 18.1 0h2.6 5.22c16.3 0 32.7 0 49 0.01 14 0.01 28.1 0.01 42.1 0 16.3-0.01 32.6-0.01 48.8-0.01h5.2 2.58c6.03 0.01 12 0 18.1 0 7.34-0.01 14.7-0.01 22 0.01h11.2c4.06-0.01 8.11 0 12.2 0.01 1.19-0.01 2.39-0.01 3.62-0.02 1.08 0.01 2.16 0.01 3.27 0.02h2.84c2.22 0.25 2.22 0.25 4.22 2.25 0.25 2.24 0.25 2.24 0.25 5.1 0 1.09 0.01 2.18 0.01 3.3 0 1.2-0.01 2.41-0.02 3.65 0.01 1.91 0.01 1.91 0.01 3.85 0 3.54 0 7.09-0.01 10.6-0.01 3.81-0.01 7.63-0.01 11.4 0 6.61 0 13.2-0.01 19.8-0.02 9.56-0.03 19.1-0.03 28.7 0 15.5-0.02 31-0.04 46.5-0.01 15.1-0.03 30.1-0.04 45.2v2.81c0 4.66 0 9.32-0.01 14-0.02 38.7-0.05 77.3-0.1 116-4.77 1.03-8.19 0.73-13 0 0.17-0.69 0.34-1.38 0.51-2.09 0.21-0.94 0.41-1.88 0.62-2.85 0.21-0.91 0.42-1.83 0.63-2.77 0.22-3 0.02-4.55-0.73-7.36-1.17-5.05-1.3-9.83-1.27-15-0.01-0.98-0.01-1.95-0.01-2.96-0.01-3.24 0-6.49 0.01-9.73v-7c-0.01-6.34 0-12.7 0.01-19 0.01-5.97 0.01-11.9 0-17.9 0-11.8 0.01-23.7 0.03-35.5 0.01-11.4 0.02-22.9 0.02-34.4v-2.13-2.13c0-12.4 0-24.8 0.01-37.2 0-5.27 0.01-10.5 0.01-15.8 0-6.22 0-12.4 0.01-18.7 0.01-2.27 0.01-4.54 0.01-6.8 0-10.4 0.06-20.9 0.59-31.3 0.06-1.14 0.06-1.14 0.12-2.29 0.25-4.43 0.76-8.76 1.43-13.2 0.34-3.39 0.54-6.62 0-10-2.9-3.21-5.69-4.86-10.1-5.12-1.22-0.01-1.22-0.01-2.47-0.01-0.94 0-1.88 0-2.85-0.01-1.55 0.01-1.55 0.01-3.13 0.01-1.65-0.01-1.65-0.01-3.33-0.01-3.7-0.01-7.4 0-11.1 0-2.64-0.01-5.29-0.01-7.93-0.01-6.46-0.01-12.9-0.01-19.4-0.02h-15.8c-14.9-0.01-29.8-0.01-44.7-0.01h-2.43-2.44c-13 0-26-0.01-39-0.03-13.4-0.01-26.8-0.02-40.1-0.02-7.5 0-15 0-22.5-0.01-6.4-0.01-12.8-0.01-19.2 0-3.26 0-6.52 0-9.78-0.01-15.5-0.03-30.7-0.05-45.7 4.25-0.05-2.29-0.09-4.58-0.12-6.87-0.02-1.28-0.05-2.56-0.07-3.87 0.32-5.38 2.45-5.51 7.26-5.51z" fill="#C36347"/>
<path transform="translate(350 274)" d="m0 0c1.67-0 1.67-0 3.37-0.01 3.7-0.01 7.39-0.01 11.1-0.01 2.66-0.01 5.32-0.01 7.99-0.02 7.2-0.01 14.4-0.02 21.6-0.02 4.5 0 9.01-0.01 13.5-0.01l37.4-0.03h2.42 2.42 4.85 2.44c13 0 26-0.02 39.1-0.05 13.4-0.02 26.8-0.03 40.2-0.03 7.52 0 15-0.01 22.5-0.03 6.39-0.01 12.8-0.02 19.2-0.01 3.25 0 6.51 0 9.77-0.01 3.54-0.01 7.07-0.01 10.6 0 1.03-0.01 2.06-0.01 3.12-0.02 6.31 0.04 10.5 0.9 15.7 4.8 1.53 2.14 1.47 3.47 1.39 6.09-0.03 0.89-0.05 1.79-0.08 2.71-0.22 3.56-0.52 7.1-0.87 10.6-1.33 13.9-1.45 27.8-1.45 41.7 0 2.35 0 4.71-0.01 7.06 0 6.34-0.01 12.7-0.01 19v13.9c-0.01 12.5-0.02 25-0.02 37.4v2.14 2.14c0 11.5 0 23-0.02 34.4-0.01 11.8-0.02 23.6-0.02 35.4 0 6.62 0 13.2-0.01 19.9-0.01 6.22-0.01 12.4-0.01 18.7 0.01 2.28 0 4.56 0 6.84-0.01 3.12-0.01 6.23 0 9.35-0.01 1.34-0.01 1.34-0.01 2.72 0.02 5.04 0.57 9.55 1.87 14.4 0.6 3.03-0.06 5.46-0.92 8.39-0.29 1.01-0.57 2.02-0.87 3.06-0.82 2.5-0.82 2.5-1.82 4.5-0.03 2.54 0.07 5.06 0.16 7.59-0.16 2.41-0.16 2.41-2.16 5.41-0.05-1.2-0.1-2.41-0.15-3.65-0.07-1.57-0.15-3.15-0.23-4.72-0.04-1.2-0.04-1.2-0.09-2.41-0.05-4.59-0.05-4.59-2.53-8.22-0.25-1.92-0.25-1.92-0.25-4.31-0.01-1.37-0.01-1.37-0.01-2.76 0-1.51 0-1.51 0.01-3.05 0-1.07 0-2.13-0.01-3.23 0-3.59 0.01-7.19 0.02-10.8 0-2.57-0.01-5.14-0.01-7.7 0-6.27 0-12.5 0.01-18.8 0.01-7.31 0.01-14.6 0.01-21.9 0-13 0.01-26.1 0.02-39.1 0.02-12.6 0.02-25.3 0.02-37.9v-2.36-2.34c0-14.4 0.01-28.8 0.02-43.2v-15.2c0-6.86 0.01-13.7 0.02-20.6v-7.53c0-23 0-23 0.94-34 0.62-8.28 0.62-8.28-1.79-16.1-3.16-1.65-5.1-2.16-8.62-1.55-4.27 0.69-8.42 0.71-12.8 0.72-1.4 0-1.4 0-2.83 0.01-3.13 0.02-6.27 0.03-9.4 0.04-2.25 0.01-4.49 0.02-6.74 0.04-6.11 0.03-12.2 0.05-18.3 0.08l-15.3 0.06c-12.8 0.06-25.6 0.12-38.3 0.17-10.4 0.04-20.7 0.08-31.1 0.13-12.1 0.06-24.1 0.12-36.2 0.17-6.37 0.02-12.7 0.05-19.1 0.08-6.01 0.03-12 0.06-18 0.08-2.19 0-4.37 0.01-6.56 0.03-12.2 0.06-24.4-0.1-36.6-0.79-5.16-0.27-10-0.22-15.2 0.49-2.99 0.37-5.96 0.3-8.96 0.24-2.62 0-4.51 0.31-7 1v-4c10.2-5.47 21.3-5.15 32.6-5.14z" fill="#E06132"/>
<path transform="translate(382 471)" d="m0 0c2.93 1.29 4.68 3.53 6.88 5.83 1.86 1.58 3.75 3.13 5.65 4.67 0.67 0.66 0.67 0.66 1.35 1.33v2c2.14 1.05 2.14 1.05 5 1 2.64-1.68 4.79-3.8 7-6 0.91-0.86 1.82-1.73 2.75-2.62 1.94-2.04 3.64-4.08 5.25-6.38 2.48 0.5 2.48 0.5 5 1v2c0.62 0.13 1.24 0.25 1.88 0.38 2.12 0.62 2.12 0.62 4.12 2.62v4h2c-1.12 3.37-2.18 4.33-4.81 6.63-0.69 0.61-1.37 1.22-2.08 1.85-2.1 1.52-3.57 2.1-6.11 2.52-0.1 0.64-0.2 1.28-0.31 1.94-0.23 0.68-0.45 1.36-0.69 2.06-0.99 0.33-1.98 0.66-3 1 2.39 5.4 5.33 8.81 9.88 12.5 0.64 0.52 1.28 1.05 1.94 1.59 0.6 0.47 1.2 0.95 1.83 1.44 1.35 1.43 1.35 1.43 1.35 4.43h2v3l-6 3 1 2c-2.45 1.61-3.91 2-6.87 2-4.09-1.31-6.57-3.58-9.13-7v-2c-0.57-0.25-1.15-0.49-1.75-0.75-2.55-1.42-4.23-3.16-6.25-5.25-1.54 1.37-3.08 2.75-4.62 4.13-0.92 0.81-1.83 1.63-2.78 2.47-2.09 1.93-3.97 3.89-5.85 6.03-2.75 2.37-2.75 2.37-5.68 2.75-4.48-2.01-7.39-5.3-10.1-9.38v-3h3c0.26-0.59 0.52-1.18 0.78-1.79 1.32-2.38 2.65-3.72 4.72-5.46 0.61-0.52 1.22-1.04 1.85-1.58 1.65-1.17 1.65-1.17 3.65-1.17 0.13-5.58 0.13-5.58-1-11h-2c-2.49-2.24-4.59-4.15-6.06-7.19-1.21-2.34-2.54-2.85-4.94-3.81 0.5-4.25 1.59-6.09 4.82-8.87 0.68-0.62 1.37-1.24 2.08-1.87 2.1-1.26 2.1-1.26 4.22-1.09z" fill="#FCFBFA"/>
<path transform="translate(386,346)" d="m0 0c2.82-0.29 2.82-0.29 6.12-0.19 1.65 0.04 1.65 0.04 3.33 0.08 1.26 0.06 1.26 0.06 2.55 0.11 0.96 2.88 1.12 4.68 1.1 7.67-0.01 0.89-0.01 1.78-0.01 2.7-0.01 1.4-0.01 1.4-0.03 2.82 0 0.94-0.01 1.88-0.01 2.85-0.01 2.32-0.03 4.64-0.05 6.96 2.8 0.93 4.69 1.16 7.6 1.25 0.88 0.03 1.76 0.06 2.68 0.1 1.86 0.06 3.72 0.11 5.58 0.17 0.88 0.03 1.77 0.07 2.68 0.1 0.8 0.03 1.61 0.05 2.44 0.08 2.02 0.3 2.02 0.3 4.02 2.3 0.2 3.04 0.2 3.04 0.12 6.62-0.01 1.19-0.03 2.38-0.05 3.61-0.02 0.91-0.05 1.83-0.07 2.77-2.5 1.25-4.21 1.11-7.01 1.1-0.98-0.01-1.97-0.01-2.99-0.01-1.03-0.01-2.06-0.02-3.12-0.03-1.57 0-1.57 0-3.16-0.01-2.57-0.01-5.15-0.03-7.72-0.05-0.04 1.04-0.04 1.04-0.08 2.1-0.11 3.11-0.23 6.22-0.36 9.34-0.04 1.09-0.08 2.17-0.12 3.3-0.06 1.55-0.06 1.55-0.12 3.13-0.04 0.96-0.08 1.92-0.11 2.91-0.21 2.22-0.21 2.22-1.21 3.22-1.98 0.1-3.96 0.13-5.94 0.12-1.62 0.01-1.62 0.01-3.27 0.01-2.79-0.13-2.79-0.13-4.79-1.13 0.01-0.58 0.02-1.17 0.04-1.77 0.07-6.71 0.12-13.6-1.04-20.2-2.35-1.17-3.92-1.18-6.54-1.28-0.89-0.04-1.78-0.08-2.7-0.11-1.88-0.07-3.77-0.15-5.66-0.22-0.89-0.03-1.78-0.07-2.7-0.11-0.82-0.03-1.64-0.06-2.48-0.09-1.92-0.19-1.92-0.19-2.92-1.19-0.14-4.67-0.04-9.33 0-14h24c-0.08-7.11-0.08-7.11-0.18-14.2-0.01-0.89-0.01-1.77-0.02-2.68s-0.02-1.82-0.03-2.75c0.23-2.36 0.23-2.36 2.23-5.36z" fill="#FCFCFC"/>
<path transform="translate(513,507)" d="m0 0 2-1c3.2-0.27 6.41-0.23 9.62-0.25 1.32-0.03 1.32-0.03 2.67-0.06 5.94-0.04 10.3 0.85 15.7 3.31 1 1 1 1 1.13 3.69 0 1.09 0 2.18-0.01 3.31 0.01 1.64 0.01 1.64 0.01 3.31-0.13 2.69-0.13 2.69-1.13 3.69-1.44 0.16-2.88 0.25-4.33 0.32-1.4 0.06-1.4 0.06-2.82 0.12-1.54 0.06-1.54 0.06-3.1 0.12-1.05 0.04-2.1 0.08-3.18 0.12-8.81 0.31-17.6 0.49-26.4 0.57-1.27 0.02-2.54 0.04-3.85 0.06-1.18 0.01-2.36 0.01-3.57 0.02-1.06 0.01-2.11 0.02-3.19 0.03-0.83-0.12-1.66-0.24-2.51-0.36-2.15-3.23-2.27-4.21-2.25-7.94-0.01-0.85-0.01-1.71-0.02-2.59 0.29-2.64 0.79-4.26 2.27-6.47 6.9-1.84 16.2-2.25 23 0z" fill="#FCFBFB"/>
<path transform="translate(496 475)" d="m0 0c1.55-0.01 1.55-0.01 3.13-0.03h3.39c1.71 0 1.71 0 3.47-0.01 2.42 0 4.84-0.01 7.26 0 3.72 0 7.44-0.02 11.2-0.05h7.05c1.68-0.01 1.68-0.01 3.39-0.03 1.55 0.01 1.55 0.01 3.12 0.02h2.76c0.73 0.12 1.45 0.25 2.2 0.37l2 3-1 1c-0.05 1.84-0.04 3.67 0 5.5 0.04 1.84 0.04 3.67 0 5.5-1.67 1.67-3.66 1.15-5.95 1.17-1.58 0.01-1.58 0.01-3.19 0.02-1.73 0.01-1.73 0.01-3.48 0.02-1.17 0-2.34 0.01-3.55 0.02-2.48 0-4.96 0.01-7.44 0.01-3.81 0.01-7.62 0.05-11.4 0.08-2.4 0-4.8 0.01-7.21 0.01-1.14 0.02-2.29 0.03-3.47 0.04-1.06 0-2.12-0.01-3.21-0.01-0.93 0-1.86 0.01-2.83 0.01-0.74-0.12-1.48-0.24-2.24-0.37-2.23-3.34-2.3-4.64-2.31-8.56-0.02-0.97-0.04-1.94-0.06-2.94 0.12-0.82 0.24-1.65 0.37-2.5 3.28-2.18 4.27-2.25 8.08-2.27z" fill="#FCFCFC"/>
<path transform="translate(494 371)" d="m0 0c1.62-0 1.62-0 3.27-0.01 1.17 0 2.34 0 3.55 0.01 1.2-0 2.39-0.01 3.62-0.01 2.53 0 5.07 0 7.6 0.01 3.89 0 7.78-0 11.7-0.01 2.45 0 4.91 0 7.36 0.01 1.17-0.01 2.35-0.01 3.55-0.01 1.08 0 2.16 0.01 3.27 0.01h2.89c2.17 0.13 2.17 0.13 3.17 1.13 0.09 2.33 0.13 4.67 0.12 7 0 1.92 0 1.92 0.01 3.87-0.13 3.13-0.13 3.13-1.13 4.13-2.12 0.1-4.24 0.13-6.36 0.13-0.66 0-1.31 0-1.98 0.01-2.14 0-4.28-0.01-6.41-0.02h-2.19c-9.16-0.02-18.3-0.13-27.4-0.56-0.86-0.04-1.72-0.08-2.6-0.12-5.76-0.31-5.76-0.31-8.02-1.44-0.03-2.15-0.05-4.29-0.07-6.44-0.01-1.19-0.02-2.39-0.03-3.62 0.16-4.84 1.79-4.07 6.15-4.07z" fill="#FCFCFC"/>
<path transform="translate(471,545)" d="m0 0c12.4-0.05 24.7-0.08 37.1-0.1 5.73-0.01 11.5-0.03 17.2-0.05 5.53-0.02 11.1-0.03 16.6-0.04 2.12 0 4.23-0.01 6.34-0.02 2.96-0.02 5.91-0.02 8.86-0.02 1.32-0.01 1.32-0.01 2.67-0.02 6.05 0.02 6.05 0.02 8.28 2.25-11.4 0.15-22.9 0.3-34.4 0.44-5.31 0.07-10.6 0.14-16 0.21-5.13 0.07-10.3 0.13-15.4 0.19-1.96 0.03-3.91 0.05-5.87 0.08-2.74 0.04-5.49 0.07-8.24 0.1-0.8 0.01-1.6 0.03-2.42 0.04-5.34 0.05-10.5-0.39-15.8-1.06l1-2z" fill="#F6885D"/>
<path transform="translate(467,563)" d="m0 0v2h-74v-2c7.32-0.17 14.6-0.33 22-0.48 2.49-0.05 4.97-0.11 7.45-0.17 14.9-0.34 29.7-0.38 44.6 0.65z" fill="#F87846"/>
<path transform="translate(536,563)" d="m0 0c5.64-0.02 11.3-0.04 16.9-0.05 1.91-0.01 3.83-0.02 5.75-0.03 2.76-0.01 5.52-0.01 8.28-0.02 0.86 0 1.72-0.01 2.6-0.01h2.43c0.7-0.01 1.41-0.01 2.13-0.01 1.88 0.12 1.88 0.12 4.88 1.12v2c-14.4 0.11-28.7 0.12-43-1v-2z" fill="#F88457"/>
<path transform="translate(487,372)" d="m0 0h1v13c7.59 0.33 15.2 0.66 23 1l1 3c-3.79 0.09-7.58 0.14-11.4 0.19-1.08 0.02-2.16 0.05-3.27 0.07-1.55 0.02-1.55 0.02-3.12 0.03-0.96 0.02-1.91 0.03-2.89 0.05-0.77-0.11-1.54-0.22-2.34-0.34-2.49-3.74-2.21-5.74-2.12-10.2 0.01-1.27 0.03-2.54 0.05-3.85 0.02-0.98 0.05-1.95 0.07-2.96z" fill="#F8895E"/>
<path transform="translate(446,442)" d="m0 0 2 1v75h-1v-73c-0.99-0.33-1.98-0.66-3-1l2-2z" fill="#F88A5F"/>
<path transform="translate(346,442)" d="m0 0h23v2h5v1h-29l1-3z" fill="#F88A5F"/>
<path transform="translate(525 506)" d="m0 0c1.39-0.03 1.39-0.03 2.81-0.06 0.89-0.01 1.78-0.01 2.69-0.02 0.81-0.01 1.63-0.02 2.47-0.03 0.67 0.12 1.34 0.24 2.03 0.36l2 3h-24v-2c3.66-1.83 7.97-1.23 12-1.25z" fill="#ECC8BC"/>
<path transform="translate(360,385)" d="m0 0 21 1 1 3h-22v-4z" fill="#F8885D"/>
<path transform="translate(354,322)" d="m0 0h19l1 3h-20v-3z" fill="#F8885D"/>
<path transform="translate(305,278)" d="m0 0 2 5c-0.99 0.33-1.98 0.66-3 1l-1 3-3 3-1-11c2-1 2-1 6-1z" fill="#E16132"/>
<path transform="translate(504 506)" d="m0 0c1.17-0 2.33-0.01 3.53-0.01 2.97 0.13 2.97 0.13 4.97 1.13v2h-17v-2c2.85-1.42 5.32-1.13 8.5-1.12z" fill="#EDCBC0"/>
<path transform="translate(386,346)" d="m0 0h12v3h-12v-3z" fill="#ECC7BB"/>
<path transform="translate(478,426)" d="m0 0 2 1v2h-10v-2c2.74-1.37 4.97-1.13 8-1z" fill="#EECFC5"/>
</svg>
